:version 1.10
:name ASF
:units
  mass 1
  length 1
  angle deg
:documentation
  ASF file generated by Kaydara
:root
  axis xyz
  order  tx ty tz rx ry rz
  position 0 0 0
  orientation 0 0 0
:bonedata
  begin
    id 1
    name RightUpLegDummy
    direction -0.718183 -0.695806 0.00816078
    length 4.904
    axis 0 0 0 xyz
  end
  begin
    id 2
    name RightUpLeg
    direction 3.53373e-006 -0.995788 0.0916898
    length 17.4976
    axis -3.49089 -0.000906625 0.000286804 xyz
    dof rx ry rz
  end
  begin
    id 3
    name RightLeg
    direction 0.00371092 -0.995096 -0.0988419
    length 16.5821
    axis 3.68512 0.0193738 -0.131023 xyz
    dof rx ry rz
  end
  begin
    id 4
    name RightFoot
    direction 0.00079151 -0.46099 0.887405
    length 3.77069
    axis 4.81691e-005 -0.120479 -0.188788 xyz
    dof rx ry rz
  end
  begin
    id 5
    name RightToes
    direction 0 0 0
    length 0
    axis 0 0 0 xyz
    dof rx ry rz
  end
  begin
    id 6
    name SpineDummy
    direction 8.3039e-015 1 4.57515e-016
    length 4.6813
    axis 0 0 0 xyz
  end
  begin
    id 7
    name Spine
    direction -3.15643e-008 0.999988 0.00495137
    length 10.1015
    axis -0.001389 0.000121418 2.40972e-006 xyz
    dof rx ry rz
  end
  begin
    id 8
    name Spine1
    direction 0 0 0
    length 0
    axis -0.001389 0.000121451 1.30017e-006 xyz
    dof rx ry rz
  end
  begin
    id 9
    name HEadDummy
    direction -1.99912e-008 0.999999 0.00127422
    length 3.43865
    axis -0.001389 0.000121451 1.30017e-006 xyz
  end
  begin
    id 10
    name HEad
    direction 0 0 0
    length 0
    axis 0 0 0 xyz
    dof rx ry rz
  end
  begin
    id 11
    name LeftShoulder1Dummy
    direction 0.998891 -0.0402509 -0.0244456
    length 3.5433
    axis -0.001389 0.000121451 1.30017e-006 xyz
  end
  begin
    id 12
    name LeftShoulder1
    direction 0.99951 -0.000327763 0.0313091
    length 4.05031
    axis -0.001389 0.000121451 1.30017e-006 xyz
    dof rx ry rz
  end
  begin
    id 13
    name LeftArm
    direction 0.998561 -0.00100056 -0.0536182
    length 10.3537
    axis -23.1894 0.134784 0.967509 xyz
    dof rx ry rz
  end
  begin
    id 14
    name LeftForeArm
    direction 0.998903 0.00866432 0.046012
    length 8.70632
    axis -9.91835 -0.06569 -0.177794 xyz
    dof rx ry rz
  end
  begin
    id 15
    name LeftHand
    direction 0 0 0
    length 0
    axis 0 0 0 xyz
    dof rx ry rz
  end
  begin
    id 16
    name RightShoulderDummy
    direction -0.998891 -0.0402509 -0.0244414
    length 3.5433
    axis -0.001389 0.000121451 1.30017e-006 xyz
  end
  begin
    id 17
    name RightShoulder
    direction -0.99951 -0.000327807 0.0313133
    length 4.05031
    axis 0.215806 0.000203643 -0.0068026 xyz
    dof rx ry rz
  end
  begin
    id 18
    name RightArm
    direction -0.998573 -0.000999564 -0.053403
    length 10.3947
    axis -23.2009 -0.134239 -0.964101 xyz
    dof rx ry rz
  end
  begin
    id 19
    name RightForeArm
    direction -0.998898 0.00868028 0.0461306
    length 8.68355
    axis -9.92322 0.0658061 0.178868 xyz
    dof rx ry rz
  end
  begin
    id 20
    name RightHand
    direction 0 0 0
    length 0
    axis 0 0 0 xyz
    dof rx ry rz
  end
  begin
    id 21
    name LeftUpLegDummy
    direction 0.718183 -0.695806 0.00816078
    length 4.904
    axis 0 0 0 xyz
  end
  begin
    id 22
    name LeftUpLeg
    direction -6.81752e-006 -0.995793 0.0916337
    length 17.4976
    axis -3.48766 0.00143442 -0.000524262 xyz
    dof rx ry rz
  end
  begin
    id 23
    name LeftLeg
    direction -0.00601358 -0.995091 -0.0987824
    length 16.5821
    axis 3.68178 -0.00654042 -0.000285133 xyz
    dof rx ry rz
  end
  begin
    id 24
    name LeftFoot
    direction -0.00417578 -0.460984 0.887399
    length 3.77069
    axis 1.87233e-006 4.66016e-005 -8.6538e-006 xyz
    dof rx ry rz
  end
  begin
    id 25
    name LeftToes
    direction 0 0 0
    length 0
    axis 0 0 0 xyz
    dof rx ry rz
  end
:hierarchy
  begin
    root RightUpLegDummy SpineDummy LeftUpLegDummy
    RightUpLegDummy RightUpLeg
    RightUpLeg RightLeg
    RightLeg RightFoot
    RightFoot RightToes
    SpineDummy Spine
    Spine Spine1
    Spine1 HEadDummy LeftShoulder1Dummy RightShoulderDummy
    HEadDummy HEad
    LeftShoulder1Dummy LeftShoulder1
    LeftShoulder1 LeftArm
    LeftArm LeftForeArm
    LeftForeArm LeftHand
    RightShoulderDummy RightShoulder
    RightShoulder RightArm
    RightArm RightForeArm
    RightForeArm RightHand
    LeftUpLegDummy LeftUpLeg
    LeftUpLeg LeftLeg
    LeftLeg LeftFoot
    LeftFoot LeftToes
  end

:SAMPLES-PER-SECOND 30
:FULLY-SPECIFIED
:DEGREES
30
root  12.5997 40.598 7.87906 26.9663 84.7787 29.7454
RightUpLeg  -4.60559 -11.0802 -9.96177
RightLeg  10.2574 -0.93125 1.30063
RightFoot  -1.18004 -0.304941 3.3375
RightToes  0.000481921 0.542163 -0.142578
Spine  11.1102 0.488498 3.67951
Spine1  -1.2087 1.58258 -4.59194
HEad  20.2552 -0.0980956 -1.18905
LeftShoulder1  6.27668 -10.2198 -39.5053
LeftArm  -4.0063 17.591 -33.0223
LeftForeArm  179.318 -58.2826 -164.693
LeftHand  -0.25398 0.0180481 5.50724
RightShoulder  2.67952 5.55497 23.3717
RightArm  -4.34885 2.84786 41.5267
RightForeArm  157.298 64.4917 158.069
RightHand  -0.306556 -1.52567 -9.01232
LeftUpLeg  0.262112 6.79966 3.61943
LeftLeg  4.72362 21.4929 -3.84147
LeftFoot  0.324038 0.145038 -1.44218
LeftToes  1.06247e-005 4.65869e-005 -8.65511e-006
31
root  12.6605 40.5917 7.86526 25.7578 84.4717 28.8201
RightUpLeg  -4.42516 -10.9508 -9.95566
RightLeg  10.5 -0.643471 1.19023
RightFoot  -1.26112 -0.272703 2.99255
RightToes  0.000481921 0.542163 -0.142578
Spine  10.6735 0.450212 3.17045
Spine1  -1.00209 1.40444 -4.04113
HEad  20.0747 0.470746 -0.63353
LeftShoulder1  6.39368 -10.5511 -39.2725
LeftArm  -3.18046 16.6855 -32.9032
LeftForeArm  178.97 -58.3488 -164.625
LeftHand  -0.25398 0.0180481 5.50724
RightShoulder  2.63112 5.31461 23.6546
RightArm  -2.12385 0.838773 42.4057
RightForeArm  161.149 63.4701 159.357
RightHand  -0.284137 -1.45549 -8.15022
LeftUpLeg  0.609099 6.90092 3.63658
LeftLeg  5.00393 21.6804 -3.76419
LeftFoot  -0.0355956 0.147561 -1.51903
LeftToes  1.06247e-005 4.65869e-005 -8.65511e-006
32
root  12.7265 40.5879 7.89049 28.7662 85.1033 32.0444
RightUpLeg  -3.99746 -11.0784 -9.97883
RightLeg  10.6702 -1.08989 1.12029
RightFoot  -1.45048 -0.248886 2.76099
RightToes  0.000481921 0.542163 -0.142578
Spine  10.0915 0.204571 1.8021
Spine1  -0.629441 0.74745 -2.32562
HEad  20.027 0.783236 -0.16853
LeftShoulder1  6.49447 -10.6807 -39.5551
LeftArm  -2.5234 15.9344 -32.644
LeftForeArm  178.742 -58.4408 -164.553
LeftHand  -0.25398 0.0180481 5.50724
RightShoulder  2.7279 5.21791 25.1546
RightArm  -0.251293 -3.16349 42.2497
RightForeArm  164.267 61.1525 161.48
RightHand  -0.266526 -1.19985 -7.18125
LeftUpLeg  0.745752 6.91566 3.69789
LeftLeg  5.27034 20.9401 -3.60476
LeftFoot  -0.270086 0.149498 -1.57663
LeftToes  1.06247e-005 4.65869e-005 -8.65511e-006
33
root  12.789 40.5807 7.93186 34.1599 85.8712 37.6945
RightUpLeg  -3.46857 -11.4193 -10.079
RightLeg  10.8642 -1.51842 1.0997
RightFoot  -1.76108 -0.247798 2.81292
RightToes  0.000481921 0.542163 -0.142578
Spine  9.64013 -0.162268 0.179141
Spine1  -0.115691 -0.112411 -0.273995
HEad  20.0177 1.16702 -0.0349993
LeftShoulder1  6.46756 -10.4831 -39.984
LeftArm  -2.3055 15.5746 -32.5858
LeftForeArm  178.758 -58.4133 -164.57
LeftHand  -0.25398 0.0180481 5.50724
RightShoulder  2.92985 5.44766 26.6744
RightArm  -0.031079 -8.66299 42.8462
RightForeArm  167.364 58.4271 163.573
RightHand  -0.195753 -1.45694 -5.46897
LeftUpLeg  0.939637 6.87601 3.77211
LeftLeg  5.43726 20.0411 -3.4818
LeftFoot  -0.452278 0.153489 -1.65694
LeftToes  1.06247e-005 4.65869e-005 -8.65511e-006
34
root  12.842 40.5715 7.98666 42.1675 86.4233 45.9254
RightUpLeg  -3.09019 -11.8171 -10.2323
RightLeg  11.1936 -1.78808 1.03073
RightFoot  -2.14972 -0.246024 2.87785
RightToes  0.000481921 0.542163 -0.142578
Spine  9.24706 -0.561343 -1.32306
Spine1  0.527351 -0.952543 1.48229
HEad  19.9038 1.72343 -0.224412
LeftShoulder1  6.34785 -10.1399 -40.2506
LeftArm  -2.48329 15.7697 -32.6755
LeftForeArm  179.123 -58.214 -164.716
LeftHand  -0.25398 0.0180481 5.50724
RightShoulder  3.06939 5.57555 27.7895
RightArm  -1.98295 -14.803 46.2108
RightForeArm  170.085 56.1046 165.132
RightHand  -0.138923 -1.83676 -4.20001
LeftUpLeg  1.18378 6.76443 3.76443
LeftLeg  5.41604 19.3174 -3.45064
LeftFoot  -0.568238 0.16393 -1.82915
LeftToes  1.06247e-005 4.65869e-005 -8.65511e-006
35
root  12.8767 40.5639 8.04121 51.8561 86.8284 55.7564
RightUpLeg  -2.87565 -12.1018 -10.3131
RightLeg  11.5372 -2.11936 0.89497
RightFoot  -2.47016 -0.234548 2.79541
RightToes  0.000481921 0.542163 -0.142578
Spine  8.88645 -1.04825 -2.69011
Spine1  1.22499 -1.84599 3.01713
HEad  19.6488 2.77969 -0.744809
LeftShoulder1  6.22489 -9.79162 -40.5252
LeftArm  -3.03742 16.6188 -32.6904
LeftForeArm  179.557 -57.8619 -164.952
LeftHand  -0.25398 0.0180481 5.50724
RightShoulder  3.10946 5.50916 28.4991
RightArm  -4.5389 -19.5924 51.4577
RightForeArm  168.755 54.9976 165.599
RightHand  -0.219268 -1.23159 -5.75088
LeftUpLeg  1.30533 6.63465 3.7187
LeftLeg  5.40135 18.712 -3.39114
LeftFoot  -0.623398 0.1743 -1.99282
LeftToes  1.06247e-005 4.65869e-005 -8.65511e-006
36
root  12.8962 40.5609 8.06496 56.203 87.0161 60.1864
RightUpLeg  -2.75256 -12.1701 -10.273
RightLeg  11.6753 -2.31988 0.805868
RightFoot  -2.59657 -0.230467 2.73777
RightToes  0.000481921 0.542163 -0.142578
Spine  8.58439 -1.50235 -3.66641
Spine1  1.89985 -2.60966 4.10916
HEad  19.3581 4.16874 -1.20055
LeftShoulder1  6.1632 -9.54093 -40.9228
LeftArm  -3.89709 17.9062 -32.6591
LeftForeArm  179.753 -57.4394 -165.204
LeftHand  -0.25398 0.0180481 5.50724
RightShoulder  3.15439 5.54522 28.8667
RightArm  -5.63646 -21.4554 54.593
RightForeArm  163.649 55.3651 164.994
RightHand  -0.409905 -0.00475832 -8.89389
LeftUpLeg  1.33608 6.57666 3.72809
LeftLeg  5.48812 18.461 -3.28129
LeftFoot  -0.671528 0.176826 -2.02798
LeftToes  1.06247e-005 4.65869e-005 -8.65511e-006
37
root  12.9146 40.5636 8.04164 48.0921 86.752 52.09
RightUpLeg  -2.77116 -12.0048 -10.1942
RightLeg  11.5544 -2.00078 0.848757
RightFoot  -2.52435 -0.237492 2.81688
RightToes  0.000481921 0.542163 -0.142578
Spine  8.3089 -1.61257 -3.75479
Spine1  2.36925 -2.74283 4.09439
HEad  19.1431 5.04621 -1.01735
LeftShoulder1  6.20081 -9.54229 -41.1886
LeftArm  -4.74337 19.1937 -32.7397
LeftForeArm  179.687 -57.1393 -165.362
LeftHand  -0.25398 0.0180481 5.50724
RightShoulder  3.23191 5.72445 29.035
RightArm  -5.18231 -20.6973 53.4587
RightForeArm  160.629 56.3021 164.244
RightHand  -0.485667 0.234633 -10.0714
LeftUpLeg  1.45585 6.62725 3.78301
LeftLeg  5.49839 18.9248 -3.26325
LeftFoot  -0.745652 0.175064 -1.99078
LeftToes  1.06247e-005 4.65869e-005 -8.65511e-006
